<?xml version="1.0" encoding="utf-8"?>
<!-- Generator: Adobe Illustrator 19.2.1, SVG Export Plug-In . SVG Version: 6.00 Build 0)  -->
<svg version="1.1" id="Layer_1" xmlns="http://www.w3.org/2000/svg" xmlns:xlink="http://www.w3.org/1999/xlink" x="0px" y="0px"
	 width="1280px" height="800px" viewBox="0 0 1280 800" style="enable-background:new 0 0 1280 800;" xml:space="preserve">
<style type="text/css">
	.st0{stroke:#000000;stroke-width:4;stroke-miterlimit:10;}
	.st1{fill:#FFFFFF;stroke:#000000;stroke-width:4;stroke-miterlimit:10;}
	.st2{fill:#696969;stroke:#000000;stroke-width:4;stroke-miterlimit:10;}
	.st3{stroke:#CECECE;stroke-width:2;stroke-miterlimit:10;}
	.st4{fill:none;stroke:#CECECE;stroke-miterlimit:10;}
	.st5{fill:#CECECE;stroke:#CECECE;stroke-width:4;stroke-miterlimit:10;}
	.st6{stroke:#CECECE;stroke-width:3;stroke-miterlimit:10;}
</style>
<path class="st0" d="M1208.4,775.2H77.1c-21.5,0-39.1-17.6-39.1-39.1v-677C38,37.6,55.6,20,77.1,20h1131.3
	c21.5,0,39.1,17.6,39.1,39.1v677C1247.4,757.6,1229.9,775.2,1208.4,775.2z"/>
<rect x="172.7" y="91.9" class="st1" width="956.7" height="617.8"/>
<path class="st2" d="M1209.9,563.5h-11.8c-3.6,0-6.5-2.9-6.5-6.5V249.8c0-3.6,2.9-6.5,6.5-6.5h11.8c3.6,0,6.5,2.9,6.5,6.5V557
	C1216.4,560.6,1213.4,563.5,1209.9,563.5z"/>
<polyline class="st3" points="124,377 86,377 86,425 144,425 "/>
<polyline class="st4" points="114.2,357.1 158.9,395.9 124.6,444.5 "/>
<path class="st3" d="M129.4,157.5V199c0,8-3.5,15.3-9.1,18.8c-0.2,0.1-0.3,0.2-0.5,0.3c-10.7,6.1-22.8-4.4-22.8-19.3v-41.3"/>
<polygon class="st5" points="122.7,157 138,157 130.4,138.4 "/>
<rect x="113.2" y="609.1" class="st6" width="28.6" height="60.7"/>
<rect x="98.9" y="600.6" class="st6" width="28.6" height="58.9"/>
</svg>
